<svg id="Layer_1" data-name="Layer 1" xmlns="http://www.w3.org/2000/svg" xmlns:xlink="http://www.w3.org/1999/xlink" viewBox="0 0 120.51 35.62"><defs><style>.cls-1{fill:url(#linear-gradient);}.cls-2{fill:url(#linear-gradient-2);}.cls-3{fill:url(#linear-gradient-3);}.cls-4{fill:url(#linear-gradient-4);}.cls-5{fill:url(#linear-gradient-5);}.cls-6{fill:url(#linear-gradient-6);}.cls-7{fill:url(#linear-gradient-7);}.cls-8{fill:url(#linear-gradient-8);}.cls-9{fill:url(#linear-gradient-9);}.cls-10{fill:url(#linear-gradient-10);}.cls-11{fill:url(#linear-gradient-11);}.cls-12{fill:url(#linear-gradient-12);}.cls-13{fill:url(#linear-gradient-13);}</style><linearGradient id="linear-gradient" x1="17.41" y1="130.67" x2="52.07" y2="165.33" gradientUnits="userSpaceOnUse"><stop offset="0" stop-color="#1ca5ff"/><stop offset="0.04" stop-color="#219df8"/><stop offset="0.36" stop-color="#4567c9"/><stop offset="0.64" stop-color="#5f3fa7"/><stop offset="0.86" stop-color="#6f2792"/><stop offset="1" stop-color="#751e8a"/></linearGradient><linearGradient id="linear-gradient-2" x1="17.41" y1="130.67" x2="52.07" y2="165.32" xlink:href="#linear-gradient"/><linearGradient id="linear-gradient-3" x1="60.59" y1="156.84" x2="60.59" y2="166.04" xlink:href="#linear-gradient"/><linearGradient id="linear-gradient-4" x1="68.97" y1="156.84" x2="68.97" y2="166.04" xlink:href="#linear-gradient"/><linearGradient id="linear-gradient-5" x1="75.56" y1="156.84" x2="75.56" y2="166.04" xlink:href="#linear-gradient"/><linearGradient id="linear-gradient-6" x1="80.45" y1="156.84" x2="80.45" y2="166.04" xlink:href="#linear-gradient"/><linearGradient id="linear-gradient-7" x1="87.13" y1="156.84" x2="87.13" y2="166.04" xlink:href="#linear-gradient"/><linearGradient id="linear-gradient-8" x1="95.82" y1="156.84" x2="95.82" y2="166.04" xlink:href="#linear-gradient"/><linearGradient id="linear-gradient-9" x1="103.37" y1="156.84" x2="103.37" y2="166.04" xlink:href="#linear-gradient"/><linearGradient id="linear-gradient-10" x1="108.29" y1="156.84" x2="108.29" y2="166.04" xlink:href="#linear-gradient"/><linearGradient id="linear-gradient-11" x1="115.09" y1="156.84" x2="115.09" y2="166.04" xlink:href="#linear-gradient"/><linearGradient id="linear-gradient-12" x1="124" y1="156.84" x2="124" y2="166.04" xlink:href="#linear-gradient"/><linearGradient id="linear-gradient-13" x1="132.7" y1="156.84" x2="132.7" y2="166.04" xlink:href="#linear-gradient"/></defs><title>full hd_svg_logo</title><path class="cls-1" d="M51,132.19H18.51A3.78,3.78,0,0,0,14.74,136V160.1a3.77,3.77,0,0,0,3.77,3.76h3.76a2,2,0,0,1,1.66.91l1.73,2.67a.8.8,0,0,0,1.35,0l1.72-2.67a2,2,0,0,1,1.67-.91H51a3.77,3.77,0,0,0,3.76-3.76V136A3.77,3.77,0,0,0,51,132.19Zm2.43,27.91A2.43,2.43,0,0,1,51,162.52H18.51a2.42,2.42,0,0,1-2.42-2.42V136a2.42,2.42,0,0,1,2.42-2.42H51A2.43,2.43,0,0,1,53.46,136Z" transform="translate(-14.74 -132.19)"/><path class="cls-2" d="M50.69,134.34H18.86a2,2,0,0,0-2,2v23.43a2,2,0,0,0,2,2H50.69a2,2,0,0,0,2-2V143.15H33.16a.9.9,0,1,1,0-1.79h19.5v-5.05A2,2,0,0,0,50.69,134.34Zm-18,22H21a.9.9,0,1,1,0-1.79h11.7a.9.9,0,1,1,0,1.79Zm0-3.76H21a.9.9,0,1,1,0-1.79h11.7a.9.9,0,1,1,0,1.79Zm3.94-5.63a1.74,1.74,0,0,1,1.74-1.74H47.8a1.74,1.74,0,0,1,1.74,1.74v9.47a1.74,1.74,0,0,1-1.74,1.74H38.33a1.74,1.74,0,0,1-1.74-1.74Zm-3.94.08a.9.9,0,1,1,0,1.79H21A.9.9,0,1,1,21,147Zm8.1-7.67h-2v-2h2Zm3.33,0h-2v-2h2Zm3.34,0h-2v-2h2Z" transform="translate(-14.74 -132.19)"/><path d="M58.14,134.56H65a6.86,6.86,0,0,1,4.89,1.63,6.27,6.27,0,0,1,0,8.63A6.91,6.91,0,0,1,65,146.45H62.25V151H58.14Zm4.1,8.62h2.3a3,3,0,0,0,2.13-.77,2.66,2.66,0,0,0,0-3.81,3,3,0,0,0-2.14-.78h-2.3Z" transform="translate(-14.74 -132.19)"/><path d="M79.82,151.21a7.33,7.33,0,0,1-5-1.75,5.84,5.84,0,0,1-1.56-2.13,7.21,7.21,0,0,1,0-5.57,6,6,0,0,1,1.56-2.13,7.42,7.42,0,0,1,5-1.74,8,8,0,0,1,2.69.45,6.9,6.9,0,0,1,2.26,1.29,6,6,0,0,1,1.56,2.13,7.09,7.09,0,0,1,0,5.57,5.84,5.84,0,0,1-1.56,2.13,7.11,7.11,0,0,1-2.26,1.3A8,8,0,0,1,79.82,151.21Zm-2.3-4.2a3.11,3.11,0,0,0,2.3,1,3.14,3.14,0,0,0,2.3-1,3.71,3.71,0,0,0,0-4.91,3.1,3.1,0,0,0-2.3-.95,3.07,3.07,0,0,0-2.3.95,3.29,3.29,0,0,0-.94,2.45A3.32,3.32,0,0,0,77.52,147Z" transform="translate(-14.74 -132.19)"/><path d="M96.84,151.21a6.39,6.39,0,0,1-2.65-.51,3.4,3.4,0,0,1-1.65-1.41v6.43H88.69V138.09h3.68l.17,1.71a3.31,3.31,0,0,1,1.62-1.43,6.69,6.69,0,0,1,2.68-.48,5.39,5.39,0,0,1,2.34.47,5.69,5.69,0,0,1,1.93,1.38,6.56,6.56,0,0,1,1.29,2.13,7.44,7.44,0,0,1,.45,2.68,7.21,7.21,0,0,1-.79,3.45,6,6,0,0,1-2.19,2.39A5.49,5.49,0,0,1,96.84,151.21Zm-1.06-10.05a3.1,3.1,0,0,0-2.3.94,3.66,3.66,0,0,0,0,4.9,3.24,3.24,0,0,0,4.58,0,3.69,3.69,0,0,0,0-4.9A3.07,3.07,0,0,0,95.78,141.16Z" transform="translate(-14.74 -132.19)"/><path d="M114.5,144.45v-9.89h4.12v9.63a6.94,6.94,0,0,1-1.85,5.19,7.76,7.76,0,0,1-10,0,7,7,0,0,1-1.83-5.19v-9.63h4.11v9.89a3.14,3.14,0,0,0,.72,2.2,2.61,2.61,0,0,0,2,.8,2.55,2.55,0,0,0,2-.8A3.09,3.09,0,0,0,114.5,144.45Z" transform="translate(-14.74 -132.19)"/><path d="M129.24,151.21a6.34,6.34,0,0,1-2.64-.51,3.36,3.36,0,0,1-1.65-1.41v6.43H121.1V138.09h3.68l.17,1.71a3.29,3.29,0,0,1,1.61-1.43,6.72,6.72,0,0,1,2.68-.48,5.43,5.43,0,0,1,2.35.47,5.69,5.69,0,0,1,1.93,1.38,6.37,6.37,0,0,1,1.28,2.13,8,8,0,0,1-.33,6.13,5.92,5.92,0,0,1-2.2,2.39A5.44,5.44,0,0,1,129.24,151.21Zm-1.05-10.05a3.1,3.1,0,0,0-2.3.94,3.66,3.66,0,0,0,0,4.9,3.24,3.24,0,0,0,4.58,0,3.69,3.69,0,0,0,0-4.9A3.07,3.07,0,0,0,128.19,141.16Z" transform="translate(-14.74 -132.19)"/><path class="cls-3" d="M62,160.59a1.42,1.42,0,0,1,.76.52,1.55,1.55,0,0,1,.32,1,1.49,1.49,0,0,1-.51,1.17,1.72,1.72,0,0,1-1.23.46H58.14v-6.06h3a1.81,1.81,0,0,1,1.24.44,1.42,1.42,0,0,1,.5,1.14,1.54,1.54,0,0,1-.24.88A1.27,1.27,0,0,1,62,160.59Zm-2.71-2.06v1.73h1.61a.79.79,0,0,0,.59-.26.87.87,0,0,0,0-1.22.78.78,0,0,0-.59-.25Zm1.82,4.3a.79.79,0,0,0,.6-.25.9.9,0,0,0,0-1.22.79.79,0,0,0-.6-.25H59.26v1.72Z" transform="translate(-14.74 -132.19)"/><path class="cls-4" d="M67.75,159v2.38a2.1,2.1,0,0,0,.26,1.15,1,1,0,0,0,.86.39,1.2,1.2,0,0,0,1-.42,1.71,1.71,0,0,0,.35-1.12V159h1v4.76h-1l0-.75a1.78,1.78,0,0,1-1.68.82,2.06,2.06,0,0,1-.86-.17,1.33,1.33,0,0,1-.56-.49,2,2,0,0,1-.31-.77,4.4,4.4,0,0,1-.1-1V159Z" transform="translate(-14.74 -132.19)"/><path class="cls-5" d="M75.57,158.27a.62.62,0,0,1-.64-.64.6.6,0,0,1,.18-.44.62.62,0,0,1,.46-.19.61.61,0,0,1,.45.19.6.6,0,0,1,.18.44.63.63,0,0,1-.63.64ZM75,159H76.1v4.76H75Z" transform="translate(-14.74 -132.19)"/><path class="cls-6" d="M79.92,157.22H81v6.49H79.92Z" transform="translate(-14.74 -132.19)"/><path class="cls-7" d="M86.85,158.88a2.61,2.61,0,0,1,1.09.22,1.53,1.53,0,0,1,.69.61v-2.49h1.06v6.49h-1l-.05-.75a1.8,1.8,0,0,1-1.78.82,2.3,2.3,0,0,1-1.15-.31,2.18,2.18,0,0,1-.82-.88,2.61,2.61,0,0,1-.3-1.26,2.66,2.66,0,0,1,.3-1.26,2.22,2.22,0,0,1,2-1.19Zm-.78,3.55a1.42,1.42,0,0,0,1.06.44,1.4,1.4,0,0,0,1.06-.44,1.61,1.61,0,0,0,0-2.2,1.43,1.43,0,0,0-1.07-.44,1.4,1.4,0,0,0-1.06.44,1.62,1.62,0,0,0,0,2.2Z" transform="translate(-14.74 -132.19)"/><path class="cls-8" d="M95.84,158.88a2.58,2.58,0,0,1,1,.21,2.35,2.35,0,0,1,.82.56,2.46,2.46,0,0,1,.51.88,2.94,2.94,0,0,1,.14,1.16h-4a1.48,1.48,0,0,0,.52.9,1.4,1.4,0,0,0,.94.34,1.47,1.47,0,0,0,.83-.24,1.53,1.53,0,0,0,.55-.67l.9.44a2.32,2.32,0,0,1-.93,1,2.62,2.62,0,0,1-1.35.36,2.7,2.7,0,0,1-1-.18,2.38,2.38,0,0,1-.81-.49,2.22,2.22,0,0,1-.56-.77,2.56,2.56,0,0,1-.2-1,2.6,2.6,0,0,1,.2-1,2.43,2.43,0,0,1,.56-.77,2.38,2.38,0,0,1,.81-.49A2.7,2.7,0,0,1,95.84,158.88Zm0,.85a1.44,1.44,0,0,0-1,.34,1.5,1.5,0,0,0-.5.91h2.93a1.55,1.55,0,0,0-.5-.91A1.44,1.44,0,0,0,95.84,159.73Z" transform="translate(-14.74 -132.19)"/><path class="cls-9" d="M102,159h1l0,.63a1.63,1.63,0,0,1,.7-.55,3.4,3.4,0,0,1,1.06-.14v.9a1.86,1.86,0,0,0-1.3.42,1.44,1.44,0,0,0-.46,1.12v2.38H102Z" transform="translate(-14.74 -132.19)"/><path class="cls-10" d="M108.29,163.77a.55.55,0,0,1-.42-.17.58.58,0,0,1-.18-.43.62.62,0,0,1,.6-.6.58.58,0,0,1,.43.18.58.58,0,0,1,.18.42.58.58,0,0,1-.18.43A.61.61,0,0,1,108.29,163.77Z" transform="translate(-14.74 -132.19)"/><path class="cls-11" d="M116.77,163.71l-.36-1.11h-2.63l-.37,1.11h-1.14l2-6.06h1.7l2,6.06Zm-2.7-2h2l-1-3.13Z" transform="translate(-14.74 -132.19)"/><path class="cls-12" d="M124.28,163.78a2.47,2.47,0,0,1-1.09-.22,1.42,1.42,0,0,1-.69-.6v2.48h-1.06V159h1l0,.76a1.8,1.8,0,0,1,1.78-.83,2.19,2.19,0,0,1,1.15.32,2.29,2.29,0,0,1,.82.87,2.66,2.66,0,0,1,.3,1.26,2.61,2.61,0,0,1-.3,1.26,2.25,2.25,0,0,1-.82.88A2.28,2.28,0,0,1,124.28,163.78Zm-.28-4a1.4,1.4,0,0,0-1.06.44,1.46,1.46,0,0,0-.44,1.1,1.49,1.49,0,0,0,.43,1.1,1.51,1.51,0,0,0,2.13,0,1.62,1.62,0,0,0,0-2.2A1.42,1.42,0,0,0,124,159.79Z" transform="translate(-14.74 -132.19)"/><path class="cls-13" d="M133,163.78a2.53,2.53,0,0,1-1.09-.22,1.52,1.52,0,0,1-.69-.6v2.48h-1V159h1l0,.76a1.81,1.81,0,0,1,1.78-.83,2.19,2.19,0,0,1,1.15.32,2.32,2.32,0,0,1,.83.87,2.66,2.66,0,0,1,.3,1.26,2.61,2.61,0,0,1-.3,1.26,2.21,2.21,0,0,1-2,1.19Zm-.28-4a1.42,1.42,0,0,0-1.06.44,1.59,1.59,0,0,0,0,2.2,1.5,1.5,0,0,0,2.12,0,1.59,1.59,0,0,0,0-2.2A1.4,1.4,0,0,0,132.7,159.79Z" transform="translate(-14.74 -132.19)"/></svg>